<svg
  width="122"
  height="75"
  viewBox="0 0 122 75"
  fill="none"
  xmlns="http://www.w3.org/2000/svg"
>
<style>
  svg {
    background: #00002a;
  }
  path {
    fill: #FFFFFF;
  }
</style>

  <path
    d="M22.34 25.37C23.6997 24.0522 24.7592 22.4566 25.4462 20.6921C26.1332 18.9276 26.4315 17.0357 26.3209 15.1454C26.2102 13.2551 25.6931 11.411 24.8049 9.73867C23.9167 8.06639 22.6783 6.60536 21.1741 5.45522C19.6699 4.30508 17.9353 3.4929 16.0887 3.07408C14.2421 2.65526 12.3269 2.63965 10.4737 3.02832C8.62046 3.417 6.87289 4.2008 5.35015 5.32628C3.82741 6.45175 2.56533 7.89241 1.65 9.54999C1.41058 9.97759 1.25796 10.4483 1.2009 10.935C1.14384 11.4217 1.18346 11.915 1.31749 12.3863C1.45152 12.8577 1.67733 13.298 1.98194 13.6819C2.28656 14.0658 2.66399 14.3857 3.09257 14.6234C3.52115 14.8611 3.99244 15.0117 4.47941 15.0668C4.96637 15.1219 5.45942 15.0802 5.93024 14.9442C6.40107 14.8083 6.84041 14.5807 7.22305 14.2745C7.60569 13.9683 7.9241 13.5895 8.16 13.16C8.64881 12.2761 9.36266 11.5372 10.2292 11.0181C11.0957 10.4991 12.084 10.2184 13.094 10.2045C14.1039 10.1907 15.0996 10.4441 15.98 10.9392C16.8605 11.4342 17.5943 12.1533 18.1072 13.0235C18.6201 13.8936 18.8938 14.8839 18.9005 15.894C18.9072 16.904 18.6467 17.8979 18.1454 18.7748C17.6441 19.6517 16.9198 20.3804 16.0461 20.8871C15.1723 21.3938 14.1801 21.6604 13.17 21.66H5.43C4.44339 21.66 3.4972 22.0519 2.79956 22.7496C2.10193 23.4472 1.71 24.3934 1.71 25.38C1.71 26.3666 2.10193 27.3128 2.79956 28.0104C3.4972 28.7081 4.44339 29.1 5.43 29.1H13.17C14.6892 29.1016 16.1457 29.7058 17.22 30.78C18.2942 31.8543 18.8984 33.3108 18.9 34.83V61.64C18.9 63.1597 18.2963 64.6171 17.2217 65.6917C16.1471 66.7663 14.6897 67.37 13.17 67.37C11.6503 67.37 10.1929 66.7663 9.11828 65.6917C8.0437 64.6171 7.44 63.1597 7.44 61.64V40.81C7.44 39.8234 7.04808 38.8772 6.35044 38.1796C5.65281 37.4819 4.70661 37.09 3.72 37.09C2.7334 37.09 1.7872 37.4819 1.08956 38.1796C0.391926 38.8772 5.88063e-08 39.8234 0 40.81V61.64C-5.15434e-08 63.3695 0.340656 65.0821 1.00251 66.6799C1.66436 68.2778 2.63446 69.7297 3.85741 70.9526C5.08035 72.1755 6.5322 73.1456 8.13006 73.8075C9.72792 74.4693 11.4405 74.81 13.17 74.81C14.8995 74.81 16.6121 74.4693 18.2099 73.8075C19.8078 73.1456 21.2596 72.1755 22.4826 70.9526C23.7055 69.7297 24.6756 68.2778 25.3375 66.6799C25.9993 65.0821 26.34 63.3695 26.34 61.64V34.83C26.3449 33.065 25.9931 31.3173 25.3058 29.6916C24.6184 28.066 23.6096 26.596 22.34 25.37V25.37Z"
  />
  <path
    d="M117.72 21.77H109.43C108.418 21.7695 107.423 21.5014 106.548 20.9927C105.673 20.4839 104.948 19.7528 104.446 18.8734C103.945 17.994 103.685 16.9976 103.693 15.9853C103.701 14.973 103.976 13.9808 104.491 13.1093C105.006 12.2378 105.743 11.5181 106.626 11.023C107.509 10.528 108.507 10.2754 109.519 10.2907C110.532 10.306 111.522 10.5887 112.389 11.1102C113.257 11.6317 113.971 12.3733 114.46 13.26C114.694 13.6951 115.011 14.0795 115.394 14.3909C115.778 14.7023 116.219 14.9345 116.693 15.0741C117.166 15.2137 117.663 15.2578 118.154 15.204C118.645 15.1501 119.12 14.9994 119.552 14.7605C119.985 14.5215 120.365 14.1992 120.672 13.8121C120.978 13.425 121.205 12.9809 121.339 12.5056C121.473 12.0302 121.511 11.533 121.451 11.0428C121.391 10.5526 121.234 10.0792 120.99 9.65C119.573 7.08643 117.345 5.06645 114.655 3.90771C111.965 2.74898 108.966 2.51722 106.129 3.24887C103.293 3.98052 100.781 5.63409 98.987 7.94954C97.1931 10.265 96.2198 13.111 96.22 16.04C96.2144 18.0292 96.666 19.9931 97.54 21.78H69.61V3.73C69.61 2.74074 69.217 1.792 68.5175 1.09249C67.818 0.39298 66.8693 0 65.88 0C64.8907 0 63.942 0.39298 63.2425 1.09249C62.543 1.792 62.15 2.74074 62.15 3.73V21.78H58.03V16.04C58.0247 12.5381 56.6313 9.18117 54.155 6.70496C51.6788 4.22875 48.3219 2.83528 44.82 2.82999H44.8C41.3013 2.83951 37.9488 4.23498 35.4767 6.71085C33.0046 9.18671 31.6142 12.5412 31.61 16.04V30.73C31.61 31.7193 32.003 32.668 32.7025 33.3675C33.402 34.067 34.3507 34.46 35.34 34.46C36.3293 34.46 37.278 34.067 37.9775 33.3675C38.677 32.668 39.07 31.7193 39.07 30.73V27.94C40.8593 28.8072 42.8216 29.2585 44.81 29.26H117.72C118.713 29.26 119.666 28.8654 120.368 28.1631C121.07 27.4608 121.465 26.5082 121.465 25.515C121.465 24.5218 121.07 23.5692 120.368 22.8669C119.666 22.1646 118.713 21.77 117.72 21.77V21.77ZM44.81 21.77C43.2877 21.77 41.8277 21.1652 40.7512 20.0888C39.6747 19.0123 39.07 17.5523 39.07 16.03C39.07 14.5076 39.6747 13.0477 40.7512 11.9712C41.8277 10.8947 43.2877 10.29 44.81 10.29H44.84C46.3566 10.2998 47.8078 10.9086 48.8774 11.9838C49.947 13.059 50.5482 14.5134 50.55 16.03V21.77H44.81Z"
  />
  <path
    d="M65.91 74.75C65.4214 74.7501 64.9377 74.654 64.4863 74.4671C64.0349 74.2802 63.6247 74.0062 63.2793 73.6607C62.9338 73.3153 62.6598 72.9051 62.4729 72.4538C62.286 72.0024 62.1899 71.5186 62.19 71.03V38.26C62.19 37.2734 62.5819 36.3272 63.2796 35.6296C63.9772 34.9319 64.9234 34.54 65.91 34.54C66.8966 34.54 67.8428 34.9319 68.5404 35.6296C69.2381 36.3272 69.63 37.2734 69.63 38.26V71.03C69.6309 71.5188 69.5353 72.0029 69.3487 72.4547C69.1621 72.9064 68.8881 73.3169 68.5425 73.6625C68.1969 74.0081 67.7864 74.2821 67.3347 74.4687C66.8829 74.6553 66.3988 74.7509 65.91 74.75V74.75Z"
  />
  <path
    d="M108.25 37.35H107.36C105.596 37.3504 103.851 37.7056 102.227 38.3945C100.604 39.0834 99.1357 40.0919 97.91 41.36C96.6843 40.0919 95.216 39.0834 93.5926 38.3945C91.9691 37.7056 90.2236 37.3504 88.46 37.35H87.57C85.3439 37.3479 83.1543 37.9159 81.21 39C80.7664 38.3369 80.1212 37.834 79.3699 37.5657C78.6185 37.2973 77.8008 37.2777 77.0374 37.5097C76.2741 37.7418 75.6056 38.2132 75.1306 38.8542C74.6557 39.4953 74.3996 40.2722 74.4 41.07V71.01C74.4 71.9966 74.7919 72.9428 75.4896 73.6404C76.1872 74.3381 77.1334 74.73 78.12 74.73C79.1066 74.73 80.0528 74.3381 80.7504 73.6404C81.4481 72.9428 81.84 71.9966 81.84 71.01V50.51C81.8416 48.9908 82.4458 47.5343 83.52 46.46C84.5943 45.3858 86.0508 44.7816 87.57 44.78H88.46C89.9792 44.7816 91.4357 45.3858 92.51 46.46C93.5842 47.5343 94.1884 48.9908 94.19 50.51V71.01C94.19 71.9966 94.5819 72.9428 95.2796 73.6404C95.9772 74.3381 96.9234 74.73 97.91 74.73C98.8966 74.73 99.8428 74.3381 100.54 73.6404C101.238 72.9428 101.63 71.9966 101.63 71.01V50.51C101.632 48.9908 102.236 47.5343 103.31 46.46C104.384 45.3858 105.841 44.7816 107.36 44.78H108.25C109.769 44.7816 111.226 45.3858 112.3 46.46C113.374 47.5343 113.978 48.9908 113.98 50.51V71.01C113.98 71.9966 114.372 72.9428 115.07 73.6404C115.767 74.3381 116.713 74.73 117.7 74.73C118.687 74.73 119.633 74.3381 120.33 73.6404C121.028 72.9428 121.42 71.9966 121.42 71.01V50.51C121.413 47.02 120.023 43.6751 117.555 41.2082C115.086 38.7414 111.74 37.354 108.25 37.35Z"
  />
  <path
    d="M58.03 50.53C58.0295 47.6096 57.0584 44.7722 55.2695 42.4638C53.4806 40.1554 50.9753 38.507 48.1474 37.7777C45.3195 37.0484 42.3294 37.2796 39.6472 38.4349C36.965 39.5902 34.7428 41.6041 33.33 44.16C33.3 44.21 33.25 44.31 33.25 44.31C32.2204 46.2212 31.6842 48.3591 31.69 50.53V61.58C31.6945 65.0715 33.0835 68.4188 35.5524 70.8876C38.0213 73.3565 41.3685 74.7455 44.86 74.75H50.45C51.4366 74.75 52.3828 74.3581 53.0804 73.6605C53.7781 72.9628 54.17 72.0166 54.17 71.03C54.17 70.0434 53.7781 69.0972 53.0804 68.3996C52.3828 67.7019 51.4366 67.31 50.45 67.31H44.86C43.7162 67.3104 42.5987 66.9675 41.652 66.3257C40.7053 65.6839 39.973 64.7727 39.55 63.71H44.86C48.3522 63.7021 51.699 62.3106 54.1674 59.8403C56.6358 57.37 58.0247 54.0222 58.03 50.53V50.53ZM39.13 50.53V50.52C39.1313 49.0034 39.7344 47.5492 40.8068 46.4768C41.8792 45.4044 43.3334 44.8013 44.85 44.8H44.86C46.3797 44.8013 47.8366 45.4063 48.9103 46.4818C49.9839 47.5574 50.5863 49.0153 50.585 50.535C50.5837 52.0547 49.9787 53.5116 48.9032 54.5853C47.8277 55.6589 46.3697 56.2613 44.85 56.26H39.12V50.53H39.13Z"
  />
</svg>

